<?xml version="1.0" encoding="UTF-8" standalone="no"?>
<svg
   xmlns:dc="http://purl.org/dc/elements/1.1/"
   xmlns:cc="http://creativecommons.org/ns#"
   xmlns:rdf="http://www.w3.org/1999/02/22-rdf-syntax-ns#"
   xmlns:svg="http://www.w3.org/2000/svg"
   xmlns="http://www.w3.org/2000/svg"
   xmlns:sodipodi="http://sodipodi.sourceforge.net/DTD/sodipodi-0.dtd"
   xmlns:inkscape="http://www.inkscape.org/namespaces/inkscape"
   width="49"
   height="49"
   viewBox="0 0 49 49"
   fill="none"
   version="1.1"
   id="svg78"
   sodipodi:docname="onshape.svg"
   inkscape:version="1.0.2-2 (e86c870879, 2021-01-15)">
  <metadata
     id="metadata84">
    <rdf:RDF>
      <cc:Work
         rdf:about="">
        <dc:format>image/svg+xml</dc:format>
        <dc:type
           rdf:resource="http://purl.org/dc/dcmitype/StillImage" />
      </cc:Work>
    </rdf:RDF>
  </metadata>
  <defs
     id="defs82" />
  <sodipodi:namedview
     pagecolor="#ffffff"
     bordercolor="#666666"
     borderopacity="1"
     objecttolerance="10"
     gridtolerance="10"
     guidetolerance="10"
     inkscape:pageopacity="0"
     inkscape:pageshadow="2"
     inkscape:window-width="1920"
     inkscape:window-height="1057"
     id="namedview80"
     showgrid="false"
     inkscape:zoom="4.5634577"
     inkscape:cx="116.09798"
     inkscape:cy="28.550914"
     inkscape:window-x="-8"
     inkscape:window-y="-8"
     inkscape:window-maximized="1"
     inkscape:current-layer="svg78" />
  <path
     d="M11.2302 24.3207L14.7526 26.3435V21.7777L24.3381 16.1716L20.8735 14.0332L11.2302 19.6971V24.3207Z"
     fill="#3B4550"
     id="path48" />
  <path
     d="M20.8735 0.97168L28.8421 5.59527L7.8811 18.0212V28.7132L0.258911 24.263V12.993L20.8735 0.97168Z"
     fill="#64BC4F"
     id="path50" />
  <path
     d="M26.4168 17.3855L22.8945 19.4083L26.9365 21.7779L26.8788 32.5855L30.4012 30.5627V19.6973L26.4168 17.3855Z"
     fill="#3B4550"
     id="path52" />
  <path
     d="M41.6612 36.8622L33.6925 41.6014V17.8477L24.0493 12.1838L32.1335 7.50244L41.6612 13.0507V36.8622Z"
     fill="#64BC4F"
     id="path54" />
  <path
     d="M24.8578 33.857V29.9269L20.8157 32.2965L11.2302 26.6904V30.6205L20.8734 36.2266L24.8578 33.857Z"
     fill="#3B4550"
     id="path56" />
  <path
     d="M0.258911 37.0355V28.2507L20.8735 40.0409L30.3435 34.377L30.4012 43.5086L21.1045 48.9991L0.258911 37.0355Z"
     fill="#64BC4F"
     id="path58" />
</svg>
